HIERARCHY
ROOT Hips
{
    OFFSET 0.0 0.0 0.0
    CHANNELS 6 Xposition Yposition Zposition Zrotation Xrotation Yrotation
    JOINT Spine
    {
        OFFSET 0.0 5.0 0.0
        CHANNELS 3 Zrotation Xrotation Yrotation
        JOINT Chest
        {
            OFFSET 0.0 5.0 0.0
            CHANNELS 3 Zrotation Xrotation Yrotation
            JOINT Neck
            {
                OFFSET 0.0 8.0 0.0
                CHANNELS 3 Zrotation Xrotation Yrotation
                JOINT Head
                {
                    OFFSET 0.0 5.0 0.0
                    CHANNELS 3 Zrotation Xrotation Yrotation
                    End Site
                    {
                        OFFSET 0.0 3.0 0.0
                    }
                }
            }
            JOINT LeftShoulder
            {
                OFFSET -5.0 0.0 0.0
                CHANNELS 3 Zrotation Xrotation Yrotation
                JOINT LeftArm
                {
                    OFFSET 0.0 -10.0 0.0
                    CHANNELS 3 Zrotation Xrotation Yrotation
                    JOINT LeftForeArm
                    {
                        OFFSET 0.0 -10.0 0.0
                        CHANNELS 3 Zrotation Xrotation Yrotation
                        End Site
                        {
                            OFFSET 0.0 -3.0 0.0
                        }
                    }
                }
            }
        }
    }
}

MOTION
Frames: 14
Frame Time: 0.033333
970.000000 442.938926 130.311555 0.000000 0.000000 0.000000 0.000000 0.000000 0.000000 29.678605 34.361643 0.000000 180.000000 -5.369287 0.000000 29.744881 -4.067247 -0.000000 150.255119 -15.938575 30.000000 19.983107 5.050572 0.000000 18.000000 -0.119524 0.000000
1354.522934 467.411410 137.629170 0.000000 0.000000 0.000000 0.000000 0.000000 0.000000 150.622570 2.442801 4.973798 -29.377430 -7.076897 4.973798 140.176400 3.827396 3.759997 -12.221629 0.257706 29.763441 132.794256 -1.336579 -3.759997 -2.626015 0.219540 0.313953
969.997807 442.887864 116.020744 0.000000 0.000000 0.000000 0.000000 0.000000 0.000000 31.061399 -17.451412 9.635073 180.000000 -0.707196 9.635073 30.285790 2.061959 7.460697 149.714210 14.880661 29.057495 19.151579 -14.206959 -7.460697 18.000000 0.863247 0.626666
1246.736984 514.278152 119.905887 0.000000 0.000000 0.000000 0.000000 0.000000 0.000000 143.557092 3.546991 13.690942 -36.442908 5.888476 13.690942 133.761037 -5.847467 11.043737 -156.950665 -5.530747 27.893295 0.000000 0.000000 0.000000 1.928484 0.467796 0.936907
1245.221100 458.637464 108.600819 0.000000 0.000000 0.000000 0.000000 0.000000 0.000000 160.701064 1.324266 16.886559 -19.298936 -2.422826 16.886559 140.193827 2.406745 14.452610 -157.554825 -5.439526 26.289200 29.500467 5.352686 -14.452610 -15.049953 -0.535269 1.243449
1257.365570 418.514181 94.422735 0.000000 0.000000 0.000000 0.000000 0.000000 0.000000 -143.710676 -1.468905 19.021130 36.289324 0.470419 19.021130 163.220413 -1.930710 17.633558 11.688054 1.057857 24.270510 152.038385 -3.606802 -17.633558 -2.339948 0.098003 1.545085
1275.099564 408.163741 96.959174 0.000000 0.000000 0.000000 0.000000 0.000000 0.000000 -132.929531 -19.702322 19.960535 47.070469 0.153993 19.960535 173.491912 4.124197 20.536413 -160.709681 -4.643708 21.869059 33.138793 5.124943 -20.536413 -14.686121 -0.512494 1.840623
1290.611115 384.880857 100.036603 0.000000 0.000000 0.000000 0.000000 0.000000 0.000000 -132.705235 6.181433 19.645745 47.294765 -3.223815 19.645745 -173.778854 -1.963569 23.115397 20.496835 -2.229070 19.122720 -161.220290 -4.029481 -23.115397 1.723235 0.397920 2.128896
1302.817154 380.305352 114.617538 0.000000 0.000000 0.000000 0.000000 0.000000 0.000000 -131.493915 -2.294144 18.096541 48.506085 0.292341 18.096541 -165.393697 2.908618 25.329838 23.154815 0.932343 16.074804 -178.200316 -0.706847 -25.329838 0.138141 0.159635 2.408768
1304.997711 379.563582 96.747523 0.000000 0.000000 0.000000 0.000000 0.000000 0.000000 -126.727972 3.010748 15.410265 53.272028 3.486993 15.410265 -160.219593 -3.866372 27.144812 28.448880 1.553210 12.773379 -174.368770 1.520637 -27.144812 0.079526 -0.112204 2.679134
1311.668472 386.890390 84.718962 0.000000 0.000000 0.000000 0.000000 0.000000 0.000000 -122.308728 -1.837374 11.755705 57.691272 5.780275 11.755705 -158.801130 0.782967 28.531695 150.942637 7.294693 9.270510 -154.878332 -4.838536 -28.531695 2.695409 0.422673 2.938926
1305.131836 395.180186 80.260657 0.000000 0.000000 0.000000 0.000000 0.000000 0.000000 -125.112810 10.698115 7.362491 54.887190 -7.892790 7.362491 -146.487292 3.478395 29.468618 -175.167369 -3.237484 5.621439 -159.224034 -3.838096 -29.468618 1.782042 0.566766 3.187120
1296.320457 392.734526 89.291717 0.000000 0.000000 0.000000 0.000000 0.000000 0.000000 -131.035750 -12.457274 2.506665 48.964250 9.708666 2.506665 -128.969563 0.324780 29.940802 38.856147 1.674768 1.883716 -134.776850 1.710527 -29.940802 3.458429 -0.164829 3.422736
1306.963577 386.612041 59.692875 0.000000 0.000000 0.000000 0.000000 0.000000 0.000000 -124.469622 -0.395024 -2.506665 55.530378 14.251967 -2.506665 -109.994856 -1.987151 29.940802 37.691309 2.285120 -1.883716 -118.274788 2.371549 -29.940802 5.098336 -0.074893 3.644843
